<svg width="364" height="987" viewBox="0 0 364 987" fill="none" xmlns="http://www.w3.org/2000/svg">
<path d="M0 0H364V987H0V0Z" fill="#2041AA"/>
<path d="M35.956 1004.94C76.0422 1004.94 108.538 972.44 108.538 932.354C108.538 892.268 76.0422 859.771 35.956 859.771C-4.13009 859.771 -36.6263 892.268 -36.6263 932.354C-36.6263 972.44 -4.13009 1004.94 35.956 1004.94Z" fill="#274DCA"/>
<path fill-rule="evenodd" clip-rule="evenodd" d="M82.0456 1043.61C143.412 1017.91 172.32 947.321 146.613 885.954C120.907 824.588 50.3207 795.68 -11.0456 821.387C-72.4119 847.093 -101.32 917.679 -75.6135 979.046C-49.9071 1040.41 20.6793 1069.32 82.0456 1043.61ZM73.6574 1023.59C23.3502 1044.66 -34.5155 1020.96 -55.5893 970.657C-76.6631 920.35 -52.9646 862.484 -2.65742 841.411C47.6498 820.337 105.516 844.035 126.589 894.343C147.663 944.65 123.965 1002.52 73.6574 1023.59Z" fill="#274DCA"/>
</svg>
